# xmcd
#
# Track frame offsets:
#  150
#  1987
#  27548
#  38926
#  52242
#  73620
#  86579
#  106885
#  123773
#  141018
#  154844
#  179946
#  194895
#  214232
#  228824
#  249232
#  275355
#  295406
#  333059
#
# Disc length: 4614 seconds
#
# Revision: 0
# Processed by: cddbd v1.5.1PL0 Copyright (c) Steve Scherf et al.
# Submitted via: Collectorz.com Music Collector 6.9
#
DISCID=1c120413
DTITLE=steve earle - Festival De Musique Country - Craponne-Sur-Arzon
DYEAR=1997
DGENRE=
TTITLE0=Intro
TTITLE1=Christmas In Washington
TTITLE2=You Know The Rest
TTITLE3=My Old Friend The Blues
TTITLE4=Someday
TTITLE5=South Nashville Blues
TTITLE6=Cckmp
TTITLE7=Sometimes She Forgets
TTITLE8=Tom Ames' Prayer
TTITLE9=Hometown Blues
TTITLE10=Goodbye
TTITLE11=More Than I Can Do
TTITLE12=Now She's Gone
TTITLE13=Valentine's Day
TTITLE14=The Devil''s Right Hand
TTITLE15=Ellis Unit One
TTITLE16=I Ain't Ever Satisfied
TTITLE17=Copperhead Road
TTITLE18=Guitar Town
EXTD=
EXTT0=
EXTT1=
EXTT2=
EXTT3=
EXTT4=
EXTT5=
EXTT6=
EXTT7=
EXTT8=
EXTT9=
EXTT10=
EXTT11=
EXTT12=
EXTT13=
EXTT14=
EXTT15=
EXTT16=
EXTT17=
EXTT18=
PLAYORDER=
